<svg xmlns="http://www.w3.org/2000/svg" width="30" height="30" fill="none"><path fill="#021D38" d="M24.375 3.984H5.625a1.64 1.64 0 0 0-1.64 1.641v18.75a1.64 1.64 0 0 0 1.64 1.64h18.75a1.64 1.64 0 0 0 1.64-1.64V5.625a1.64 1.64 0 0 0-1.64-1.64Zm.234 20.391a.234.234 0 0 1-.234.234H5.625a.234.234 0 0 1-.234-.234V5.625a.234.234 0 0 1 .234-.234h18.75a.234.234 0 0 1 .234.234v18.75Z"/><path fill="#021D38" d="m21.905 15.293-3.25 4.5a.501.501 0 0 1-.813 0l-6.092-8.44-2.844 3.938a.501.501 0 0 1-.813-.585l3.25-4.5a.5.5 0 0 1 .813 0l6.094 8.438 2.844-3.938a.498.498 0 0 1 .7-.114.5.5 0 0 1 .113.7h-.002Z"/></svg>