<svg width="22" height="24" fill="none" xmlns="http://www.w3.org/2000/svg"><path d="M20.872 6.816 14.309.253a.703.703 0 0 0-.496-.206H2.563a1.64 1.64 0 0 0-1.641 1.64v20.625a1.64 1.64 0 0 0 1.64 1.641h16.875a1.64 1.64 0 0 0 1.641-1.64v-15a.703.703 0 0 0-.206-.497Zm-6.356-4.37 4.162 4.163h-4.162V2.447Zm4.921 20.1H2.563a.234.234 0 0 1-.234-.233V1.688a.234.234 0 0 1 .235-.235h10.546v5.86a.703.703 0 0 0 .704.703h5.859v14.296a.234.234 0 0 1-.235.235ZM13.8 16.619a3.99 3.99 0 1 0-.994.994l1.447 1.447a.703.703 0 0 0 .994-.993L13.8 16.618Zm-5.847-2.274a2.578 2.578 0 1 1 5.156 0 2.578 2.578 0 0 1-5.156 0Z" fill="#fff"/></svg>