<svg xmlns="http://www.w3.org/2000/svg" width="30" height="30" fill="none"><path fill="#021D38" d="M23.438 4.922H6.563a1.64 1.64 0 0 0-1.641 1.64v16.875a1.64 1.64 0 0 0 1.64 1.641h16.875a1.64 1.64 0 0 0 1.641-1.64V6.563a1.64 1.64 0 0 0-1.64-1.641Zm.234 1.64v7.735h-7.969V6.328h7.735a.234.234 0 0 1 .234.234Zm-17.11-.234h7.735v7.969H6.328V6.562a.234.234 0 0 1 .234-.234Zm-.234 17.11v-7.735h7.969v7.969H6.562a.234.234 0 0 1-.234-.235Zm17.11.234h-7.735v-7.969h7.969v7.735a.234.234 0 0 1-.235.234Z"/></svg>