<svg width="22" height="22" fill="none" xmlns="http://www.w3.org/2000/svg"><path d="M20.375.219H1.625A1.406 1.406 0 0 0 .219 1.625v18.75a1.406 1.406 0 0 0 1.406 1.406h18.75a1.406 1.406 0 0 0 1.406-1.406V1.625A1.406 1.406 0 0 0 20.375.219ZM3.383 20.844a7.969 7.969 0 0 1 15.234 0H3.383Zm17.46-.469a.47.47 0 0 1-.468.469h-.78a8.906 8.906 0 0 0-6.182-6.226 5.157 5.157 0 1 0-4.826 0 8.905 8.905 0 0 0-6.182 6.226h-.78a.469.469 0 0 1-.469-.469V1.625a.469.469 0 0 1 .469-.469h18.75a.47.47 0 0 1 .469.469v18.75ZM11 14.281a4.22 4.22 0 1 1 0-8.438 4.22 4.22 0 0 1 0 8.438Z" fill="#fff"/></svg>