<svg xmlns="http://www.w3.org/2000/svg" width="26" height="24" fill="none"><path fill="#021D38" d="M25.89 13.938v7.5a1.64 1.64 0 0 1-1.64 1.64H1.75a1.64 1.64 0 0 1-1.64-1.64v-7.5a1.64 1.64 0 0 1 1.64-1.641h4.688a.703.703 0 0 1 0 1.406H1.75a.234.234 0 0 0-.234.235v7.5a.234.234 0 0 0 .234.234h22.5a.234.234 0 0 0 .234-.235v-7.5a.234.234 0 0 0-.234-.234h-4.688a.703.703 0 0 1 0-1.406h4.688a1.64 1.64 0 0 1 1.64 1.64Zm-13.387-.441a.704.704 0 0 0 .994 0l5.625-5.625a.703.703 0 0 0-.994-.994l-4.425 4.424V.812a.703.703 0 0 0-1.406 0v10.49L7.872 6.878a.703.703 0 0 0-.994.994l5.625 5.625Zm8.7 4.19a1.172 1.172 0 1 0-2.344 0 1.172 1.172 0 0 0 2.344 0Z"/></svg>