<svg xmlns="http://www.w3.org/2000/svg" width="26" height="21" fill="none"><path fill="#FBBB3B" d="M25.519 8.103a1.64 1.64 0 0 0-1.331-.681h-2.11v-2.11a1.64 1.64 0 0 0-1.64-1.64h-8.125c-.05 0-.1-.017-.14-.047l-3.25-2.438A1.648 1.648 0 0 0 7.938.86h-6.25A1.64 1.64 0 0 0 .046 2.5v16.875a.703.703 0 0 0 .703.703h20.988a.703.703 0 0 0 .667-.48l3.339-10.016a1.641 1.641 0 0 0-.225-1.48ZM1.688 2.266h6.25c.051 0 .1.016.14.046l3.25 2.438c.285.213.63.328.985.328h8.124a.234.234 0 0 1 .235.234v2.11H5.176A1.64 1.64 0 0 0 3.62 8.543L1.453 15.04V2.5a.234.234 0 0 1 .234-.234Zm22.722 6.87-3.178 9.536H1.726l3.228-9.683a.234.234 0 0 1 .222-.16h19.012a.235.235 0 0 1 .222.307Z"/></svg>