<svg xmlns="http://www.w3.org/2000/svg" width="30" height="30" fill="none"><path fill="#021D38" d="M22.313 8.672H12.291l-3.27-3.27a1.634 1.634 0 0 0-1.16-.48H1.687a1.64 1.64 0 0 0-1.64 1.64V23.51a1.569 1.569 0 0 0 1.568 1.568h20.802a1.537 1.537 0 0 0 1.536-1.536v-13.23a1.64 1.64 0 0 0-1.64-1.64ZM1.688 6.328h6.174c.062 0 .122.025.165.07l2.275 2.274H1.453v-2.11a.234.234 0 0 1 .234-.234Zm20.859 17.214a.13.13 0 0 1-.13.13H1.615a.164.164 0 0 1-.162-.162V10.078h20.86a.234.234 0 0 1 .234.235v13.229ZM30 27a.6.6 0 0 1-.6.6h-1.8v1.8a.6.6 0 0 1-1.2 0v-1.8h-1.8a.6.6 0 0 1 0-1.2h1.8v-1.8a.6.6 0 0 1 1.2 0v1.8h1.8a.6.6 0 0 1 .6.6Z"/></svg>