<svg width="35" height="35" fill="none" xmlns="http://www.w3.org/2000/svg"><path d="m28.996 10.36-11.379 11.4c-1.133 1.134-4.497 1.66-5.248.907-.751-.752-.239-4.122.895-5.257L24.654 6a3.077 3.077 0 0 1 3.418-.777A3.078 3.078 0 0 1 30 8.156a3.088 3.088 0 0 1-1.003 2.205Z" stroke="#000" stroke-width="2" stroke-linecap="round" stroke-linejoin="round"/><path d="M16.735 7.493H10.77a4.767 4.767 0 0 0-3.374 1.4A4.784 4.784 0 0 0 6 12.273V24.22c0 1.267.503 2.483 1.397 3.38A4.766 4.766 0 0 0 10.771 29h13.12c2.636 0 3.578-2.15 3.578-4.78v-5.973" stroke="#000" stroke-width="2" stroke-linecap="round" stroke-linejoin="round"/></svg>