<svg xmlns="http://www.w3.org/2000/svg" width="30" height="30" fill="none"><path fill="#021D38" d="M30 27a.6.6 0 0 1-.6.6h-1.8v1.8a.6.6 0 0 1-1.2 0v-1.8h-1.8a.6.6 0 0 1 0-1.2h1.8v-1.8a.6.6 0 0 1 1.2 0v1.8h1.8a.6.6 0 0 1 .6.6ZM25.824 15.299c-2.53 5.393-4.738 7.904-6.965 7.904-2.792 0-4.593-3.839-6.5-7.904-1.555-3.326-3.323-7.096-5.218-7.096-1.076 0-2.93 1.23-5.688 7.096A.703.703 0 0 1 .181 14.7c2.525-5.393 4.733-7.904 6.96-7.904 2.792 0 4.593 3.839 6.5 7.904 1.555 3.326 3.323 7.096 5.218 7.096 1.076 0 2.936-1.23 5.688-7.096a.703.703 0 0 1 1.272.598h.005Z"/></svg>