<svg width="35" height="35" fill="none" xmlns="http://www.w3.org/2000/svg"><path fill-rule="evenodd" clip-rule="evenodd" d="M30 10.114a5.114 5.114 0 0 1-9.065 3.246l-5.852 2.926a5.124 5.124 0 0 1-.001 2.427l5.853 2.927a5.114 5.114 0 1 1-1.017 2.032l-5.855-2.927a5.114 5.114 0 1 1 .004-6.492l5.85-2.925A5.114 5.114 0 1 1 30 10.114Zm-7.951 0a2.838 2.838 0 1 0 5.675 0 2.838 2.838 0 0 0-5.675 0Zm0 14.772a2.838 2.838 0 1 0 5.675 0 2.838 2.838 0 0 0-5.675 0Zm-11.935-4.552a2.838 2.838 0 1 1 0-5.675 2.838 2.838 0 0 1 0 5.675Z" fill="#0F0F0F"/></svg>