<svg xmlns="http://www.w3.org/2000/svg" width="20" height="20" fill="none"><g clip-path="url(#a)"><path fill="#021D38" fill-rule="evenodd" d="M8.412 15.281c-3.93 0-7.118-3.131-7.118-7s3.187-7.006 7.118-7.006c3.932 0 7.12 3.137 7.12 7.006s-3.188 7-7.12 7Zm11.393 3.625-5.162-5.081c1.351-1.469 2.182-3.406 2.182-5.544C16.825 3.706 13.059 0 8.413 0 3.765 0 0 3.706 0 8.281c0 4.569 3.766 8.275 8.412 8.275a8.45 8.45 0 0 0 5.295-1.85l5.183 5.1c.253.25.662.25.915 0a.628.628 0 0 0 0-.9Z" clip-rule="evenodd"/></g><defs><clipPath id="a"><path fill="#fff" d="M0 0h20v20H0z"/></clipPath></defs></svg>