<svg xmlns="http://www.w3.org/2000/svg" width="22" height="26" fill="none"><path fill="#FBBB3B" d="M11 5.734a4.453 4.453 0 1 0 0 8.907 4.453 4.453 0 0 0 0-8.907Zm0 7.5a3.047 3.047 0 1 1 0-6.093 3.047 3.047 0 0 1 0 6.093ZM11 .11A10.09 10.09 0 0 0 .922 10.188c0 3.622 1.68 7.469 4.86 11.125a29.57 29.57 0 0 0 4.815 4.453.703.703 0 0 0 .806 0 29.57 29.57 0 0 0 4.815-4.453c3.18-3.656 4.86-7.5 4.86-11.125A10.09 10.09 0 0 0 11 .108Zm0 24.2c-1.758-1.356-8.672-7.135-8.672-14.122a8.672 8.672 0 0 1 17.344 0c0 6.987-6.914 12.766-8.672 14.123Z"/></svg>