<svg xmlns="http://www.w3.org/2000/svg" width="24" height="24" fill="none"><path fill="#FBBB3B" d="M12 .047C5.823.047.984 2.827.984 6.375v11.25c0 3.548 4.84 6.328 11.016 6.328 6.177 0 11.016-2.78 11.016-6.328V6.375C23.016 2.827 18.177.047 12 .047Zm0 1.406c5.209 0 9.61 2.254 9.61 4.922 0 2.668-4.401 4.922-9.61 4.922S2.39 9.043 2.39 6.375c0-2.668 4.401-4.922 9.61-4.922Zm9.61 16.172c0 2.668-4.401 4.922-9.61 4.922s-9.61-2.254-9.61-4.922v-2.486c1.876 1.919 5.435 3.19 9.61 3.19s7.734-1.271 9.61-3.19v2.486Zm0-5.625c0 2.668-4.401 4.922-9.61 4.922S2.39 14.668 2.39 12V9.514c1.876 1.919 5.435 3.19 9.61 3.19s7.734-1.271 9.61-3.19V12Z"/></svg>