<svg width="30" height="30" fill="none" xmlns="http://www.w3.org/2000/svg"><path d="M28.519 13.103a1.641 1.641 0 0 0-1.331-.681h-2.11v-2.11a1.64 1.64 0 0 0-1.64-1.64h-8.125c-.05 0-.1-.017-.14-.047l-3.25-2.438a1.648 1.648 0 0 0-.985-.328h-6.25A1.64 1.64 0 0 0 3.046 7.5v16.875a.703.703 0 0 0 .703.703h20.988a.703.703 0 0 0 .667-.48l3.339-10.016a1.64 1.64 0 0 0-.225-1.48ZM4.688 7.266h6.25c.051 0 .1.016.14.046l3.25 2.438c.285.213.63.328.985.328h8.124a.234.234 0 0 1 .235.235v2.109H8.176a1.64 1.64 0 0 0-1.556 1.121L4.453 20.04V7.5a.234.234 0 0 1 .234-.234Zm22.722 6.87-3.178 9.536H4.726l3.228-9.683a.234.234 0 0 1 .222-.16h19.012a.235.235 0 0 1 .222.307Z" fill="#FBBB3B"/></svg>