<svg xmlns="http://www.w3.org/2000/svg" width="26" height="24" fill="none"><path fill="#021D38" d="M25.89 13.938v7.5a1.64 1.64 0 0 1-1.64 1.64H1.75a1.64 1.64 0 0 1-1.64-1.64v-7.5a1.64 1.64 0 0 1 1.64-1.641h5.625a.703.703 0 1 1 0 1.406H1.75a.234.234 0 0 0-.234.235v7.5a.234.234 0 0 0 .234.234h22.5a.234.234 0 0 0 .234-.235v-7.5a.234.234 0 0 0-.234-.234h-5.625a.703.703 0 0 1 0-1.406h5.625a1.64 1.64 0 0 1 1.64 1.64ZM7.873 6.934l4.425-4.423V13a.703.703 0 0 0 1.406 0V2.51l4.425 4.424a.703.703 0 0 0 .994-.993L13.497.316a.703.703 0 0 0-.994 0L6.878 5.94a.703.703 0 0 0 .994.993Zm13.331 10.753a1.172 1.172 0 1 0-2.343 0 1.172 1.172 0 0 0 2.343 0Z"/></svg>