<svg xmlns="http://www.w3.org/2000/svg" width="25" height="27" fill="none"><path fill="#021D38" d="M25 24a.6.6 0 0 1-.6.6h-1.8v1.8a.6.6 0 0 1-1.2 0v-1.8h-1.8a.6.6 0 0 1 0-1.2h1.8v-1.8a.6.6 0 0 1 1.2 0v1.8h1.8a.6.6 0 0 1 .6.6ZM9.5 0C4.173 0 0 2.79 0 6.353v11.294C0 21.21 4.173 24 9.5 24s9.5-2.79 9.5-6.353V6.353C19 2.79 14.827 0 9.5 0Zm0 1.412c4.492 0 8.287 2.262 8.287 4.94 0 2.68-3.795 4.942-8.287 4.942-4.492 0-8.287-2.262-8.287-4.941S5.008 1.412 9.5 1.412Zm8.287 16.235c0 2.679-3.795 4.941-8.287 4.941-4.492 0-8.287-2.262-8.287-4.94v-2.496c1.617 1.926 4.686 3.2 8.287 3.2 3.6 0 6.67-1.274 8.287-3.2v2.495Zm0-5.647c0 2.679-3.795 4.941-8.287 4.941-4.492 0-8.287-2.262-8.287-4.941V9.505c1.617 1.926 4.686 3.2 8.287 3.2 3.6 0 6.67-1.274 8.287-3.2V12Z"/></svg>