<svg width="22" height="22" fill="none" xmlns="http://www.w3.org/2000/svg"><path fill-rule="evenodd" clip-rule="evenodd" d="M13.17 16H1.992C1.456 16 1 16.448 1 17c0 .556.444 1 .992 1H13.17a3.001 3.001 0 0 0 5.658 0h1.179c.536 0 .992-.448.992-1 0-.556-.444-1-.992-1h-1.179a3.001 3.001 0 0 0-5.658 0Zm-3.34-5h10.178c.536 0 .992-.448.992-1 0-.556-.444-1-.992-1H9.83a3.001 3.001 0 0 0-5.658 0H1.993c-.536 0-.992.448-.992 1 0 .556.444 1 .992 1h2.179a3.001 3.001 0 0 0 5.658 0Zm3.34-9H1.992C1.456 2 1 2.448 1 3c0 .556.444 1 .992 1H13.17a3.001 3.001 0 0 0 5.658 0h1.179c.536 0 .992-.448.992-1 0-.556-.444-1-.992-1h-1.179a3.001 3.001 0 0 0-5.658 0ZM16 4a1 1 0 1 0-.002-2A1 1 0 0 0 16 4ZM7 9a1 1 0 1 0 0 2 1 1 0 0 0 0-2Zm9 9a1 1 0 1 0-.002-2A1 1 0 0 0 16 18Z" fill="#fff"/></svg>