<svg width="24" height="22" fill="none" xmlns="http://www.w3.org/2000/svg"><path d="M23.953 20.375a.703.703 0 0 1-.703.703H.75a.703.703 0 0 1-.703-.703V1.625a.703.703 0 1 1 1.406 0v18.047H23.25a.703.703 0 0 1 .703.703Zm-11.484-5.86a1.172 1.172 0 1 0 0-2.343 1.172 1.172 0 0 0 0 2.344ZM9.656 7.954a1.172 1.172 0 1 0 0-2.343 1.172 1.172 0 0 0 0 2.343Zm-3.75 8.438a1.172 1.172 0 1 0 0-2.344 1.172 1.172 0 0 0 0 2.344Zm11.25-5.625a1.172 1.172 0 1 0 0-2.344 1.172 1.172 0 0 0 0 2.344Zm2.813-4.688a1.172 1.172 0 1 0 0-2.343 1.172 1.172 0 0 0 0 2.343Zm-.938 7.969a1.172 1.172 0 1 0 0 2.343 1.172 1.172 0 0 0 0-2.343Z" fill="#fff"/></svg>