<svg width="400" height="400" viewBox="0 0 400 400" fill="none" xmlns="http://www.w3.org/2000/svg">
<rect width="400" height="400" fill="#FBBB3B"/>
<path d="M174.818 184C174.182 181.788 173.288 179.833 172.136 178.136C170.985 176.409 169.576 174.955 167.909 173.773C166.273 172.561 164.394 171.636 162.273 171C160.182 170.364 157.864 170.045 155.318 170.045C150.561 170.045 146.379 171.227 142.773 173.591C139.197 175.955 136.409 179.394 134.409 183.909C132.409 188.394 131.409 193.879 131.409 200.364C131.409 206.848 132.394 212.364 134.364 216.909C136.333 221.455 139.121 224.924 142.727 227.318C146.333 229.682 150.591 230.864 155.5 230.864C159.955 230.864 163.758 230.076 166.909 228.5C170.091 226.894 172.515 224.636 174.182 221.727C175.879 218.818 176.727 215.379 176.727 211.409L180.727 212H156.727V197.182H195.682V208.909C195.682 217.091 193.955 224.121 190.5 230C187.045 235.848 182.288 240.364 176.227 243.545C170.167 246.697 163.227 248.273 155.409 248.273C146.682 248.273 139.015 246.348 132.409 242.5C125.803 238.621 120.652 233.121 116.955 226C113.288 218.848 111.455 210.364 111.455 200.545C111.455 193 112.545 186.273 114.727 180.364C116.939 174.424 120.03 169.394 124 165.273C127.97 161.152 132.591 158.015 137.864 155.864C143.136 153.712 148.848 152.636 155 152.636C160.273 152.636 165.182 153.409 169.727 154.955C174.273 156.47 178.303 158.621 181.818 161.409C185.364 164.197 188.258 167.515 190.5 171.364C192.742 175.182 194.182 179.394 194.818 184H174.818ZM243.466 247H210.466V153.909H243.739C253.102 153.909 261.163 155.773 267.92 159.5C274.678 163.197 279.875 168.515 283.511 175.455C287.178 182.394 289.011 190.697 289.011 200.364C289.011 210.061 287.178 218.394 283.511 225.364C279.875 232.333 274.648 237.682 267.83 241.409C261.042 245.136 252.92 247 243.466 247ZM230.148 230.136H242.648C248.466 230.136 253.36 229.106 257.33 227.045C261.33 224.955 264.33 221.727 266.33 217.364C268.36 212.97 269.375 207.303 269.375 200.364C269.375 193.485 268.36 187.864 266.33 183.5C264.33 179.136 261.345 175.924 257.375 173.864C253.405 171.803 248.511 170.773 242.693 170.773H230.148V230.136Z" fill="white"/>
<rect x="51.5" y="51.5" width="297" height="297" stroke="white" stroke-width="3"/>
</svg>
